<svg width="364" height="338" viewBox="0 0 364 338" fill="none" xmlns="http://www.w3.org/2000/svg">
<path d="M311.223 184.782H52.2435C51.4193 184.779 50.6297 184.451 50.0469 183.868C49.4642 183.285 49.1357 182.496 49.1332 181.672C49.1357 180.847 49.4642 180.058 50.0469 179.475C50.6297 178.892 51.4193 178.564 52.2435 178.561H311.223C312.047 178.564 312.837 178.892 313.42 179.475C314.002 180.058 314.331 180.847 314.333 181.672C314.331 182.496 314.002 183.285 313.42 183.868C312.837 184.451 312.047 184.779 311.223 184.782Z" fill="#407BFF"/>
<path opacity="0.3" d="M311.224 184.782H250.598C249.774 184.779 248.984 184.451 248.402 183.868C247.819 183.285 247.49 182.496 247.488 181.672C247.49 180.847 247.819 180.058 248.402 179.475C248.984 178.892 249.774 178.564 250.598 178.561H311.224C312.048 178.564 312.838 178.892 313.421 179.475C314.003 180.058 314.332 180.847 314.334 181.672C314.332 182.496 314.003 183.285 313.421 183.868C312.838 184.451 312.048 184.779 311.224 184.782Z" fill="#263238"/>
<path d="M304.648 192.581H105.473V214.259H304.648V192.581Z" fill="#263238"/>
<path opacity="0.1" d="M304.648 192.581H105.473V214.259H304.648V192.581Z" fill="white"/>
<path d="M301.753 322.453H307.712L307.469 184.781H299.213L301.753 322.453Z" fill="#263238"/>
<path opacity="0.1" d="M301.753 322.453H307.712L307.469 184.781H299.213L301.753 322.453Z" fill="white"/>
<path d="M246.833 322.453H240.865L254.352 184.781H262.608L246.833 322.453Z" fill="#263238"/>
<path opacity="0.2" d="M246.833 322.453H240.865L254.352 184.781H262.608L246.833 322.453Z" fill="white"/>
<path d="M103.401 322.453H109.36L109.117 184.781H100.86L103.401 322.453Z" fill="#263238"/>
<path opacity="0.1" d="M103.401 322.453H109.36L109.117 184.781H100.86L103.401 322.453Z" fill="white"/>
<path d="M48.4804 322.453H42.5121L55.9991 184.781H64.2557L48.4804 322.453Z" fill="#263238"/>
<path opacity="0.2" d="M48.4804 322.453H42.5121L55.9991 184.781H64.2557L48.4804 322.453Z" fill="white"/>
<path d="M216.228 178.562H202.479L196.978 151.681H210.726L216.228 178.562Z" fill="#263238"/>
<path d="M234.468 173.022H174.822C174.359 173.027 173.899 172.936 173.472 172.754C173.045 172.573 172.661 172.304 172.343 171.966C172.025 171.628 171.781 171.228 171.626 170.791C171.471 170.354 171.408 169.889 171.441 169.426L173.72 131.665C173.79 130.697 174.221 129.791 174.926 129.126C175.632 128.46 176.561 128.083 177.531 128.069H237.186C237.649 128.065 238.108 128.157 238.535 128.34C238.961 128.522 239.345 128.79 239.662 129.128C239.98 129.466 240.224 129.865 240.38 130.302C240.535 130.738 240.599 131.202 240.567 131.665L238.288 169.426C238.216 170.395 237.783 171.301 237.076 171.966C236.369 172.632 235.439 173.009 234.468 173.022Z" fill="#263238"/>
<path d="M233.535 173.022H173.89C173.426 173.027 172.966 172.936 172.539 172.754C172.112 172.573 171.728 172.304 171.41 171.966C171.092 171.628 170.848 171.228 170.693 170.791C170.538 170.354 170.475 169.889 170.509 169.426L172.788 131.665C172.858 130.697 173.288 129.791 173.993 129.126C174.699 128.46 175.628 128.083 176.598 128.069H236.253C236.716 128.065 237.176 128.157 237.602 128.34C238.028 128.522 238.412 128.79 238.729 129.128C239.047 129.466 239.291 129.865 239.447 130.302C239.602 130.738 239.666 131.202 239.634 131.665L237.355 169.426C237.283 170.395 236.85 171.301 236.143 171.966C235.436 172.632 234.506 173.009 233.535 173.022Z" fill="#F99F8B"/>
<path d="M173.88 171.154C173.672 171.156 173.467 171.115 173.276 171.035C173.085 170.954 172.912 170.836 172.768 170.687C172.628 170.532 172.52 170.351 172.451 170.154C172.382 169.956 172.353 169.747 172.367 169.538L174.646 131.777C174.68 131.278 174.899 130.811 175.26 130.465C175.621 130.12 176.098 129.922 176.598 129.909H236.252C236.461 129.906 236.667 129.946 236.859 130.027C237.051 130.109 237.224 130.229 237.367 130.382C237.509 130.534 237.618 130.714 237.687 130.911C237.756 131.108 237.782 131.317 237.765 131.525L235.486 169.286C235.454 169.785 235.235 170.254 234.874 170.6C234.512 170.946 234.034 171.144 233.534 171.154H173.88Z" fill="white" fill-opacity="0.6"/>
<path opacity="0.2" d="M200.077 128.069L203.953 141.341L215.46 128.069H200.077Z" fill="black"/>
<path d="M107.362 95.8462C107.455 96.5654 107.904 97.1071 108.38 97.0697C108.856 97.0324 109.155 96.4159 109.062 95.6967C108.968 94.9776 108.52 94.4358 108.053 94.4732C107.586 94.5106 107.278 95.1457 107.362 95.8462Z" fill="#263238"/>
<path d="M108.144 96.9196C108.985 98.784 110.072 100.527 111.376 102.103C110.348 103.14 108.471 102.72 108.471 102.72L108.144 96.9196Z" fill="#A02724"/>
<path d="M104.98 93.1089C104.909 93.1221 104.836 93.1221 104.765 93.1089C104.661 93.0636 104.579 92.98 104.536 92.8756C104.492 92.7712 104.491 92.654 104.531 92.5485C104.774 91.9264 105.165 91.3726 105.669 90.9349C106.173 90.4972 106.777 90.1888 107.427 90.0361C107.481 90.0267 107.537 90.0282 107.591 90.0406C107.645 90.0529 107.696 90.0758 107.741 90.1079C107.787 90.14 107.825 90.1807 107.854 90.2277C107.884 90.2747 107.903 90.327 107.912 90.3816C107.932 90.493 107.906 90.6074 107.841 90.7001C107.777 90.7927 107.678 90.8562 107.567 90.8767C107.058 90.9998 106.587 91.2466 106.196 91.5953C105.805 91.9439 105.506 92.3836 105.325 92.8754C105.291 92.9395 105.241 92.9941 105.181 93.0348C105.121 93.0755 105.052 93.1009 104.98 93.1089Z" fill="#263238"/>
<path d="M86.1975 107.12L91.8015 111.416L99.4509 117.272C99.0315 118.152 98.7782 119.102 98.7037 120.074C98.4329 122.222 98.162 123.81 102.935 125.127C103.442 125.248 103.903 125.512 104.264 125.888C104.625 126.264 104.87 126.736 104.971 127.247C105.158 128.518 104.382 130.049 99.974 130.806C95.704 131.444 91.3419 130.701 87.5237 128.686C85.6557 127.752 85.6557 126.631 86.4403 124.735C88.794 119.346 87.6545 112.471 86.1975 107.12Z" fill="#B55B52"/>
<path d="M79.7588 126.434C80.835 124.363 81.7227 122.2 82.4114 119.97C82.4114 119.97 96.6082 119.195 101.297 120.596C105.986 121.997 108.9 128.068 108.9 128.068L79.7588 126.434Z" fill="#3B5CAA"/>
<path d="M85.7012 136.998C85.3556 138.044 84.9726 139.323 84.6084 140.5L83.553 144.143C82.8992 146.571 82.264 149.009 81.769 151.437C81.242 153.812 80.8398 156.212 80.5642 158.629C80.2762 160.849 80.2074 163.092 80.3587 165.326C80.4137 166.271 80.5576 167.209 80.7883 168.128C80.8444 168.315 80.8911 168.52 80.9564 168.698L81.1432 169.202C81.099 169.112 81.0491 169.024 80.9938 168.941C80.8984 168.804 80.7955 168.673 80.6856 168.548C80.5653 168.404 80.4272 168.275 80.2746 168.165C80.0878 168.035 80.0598 168.053 80.0972 168.1C80.3707 168.297 80.6652 168.463 80.9751 168.595C81.3954 168.782 81.9091 168.969 82.4228 169.146C83.4782 169.501 84.6457 169.828 85.8506 170.145C90.67 171.36 95.9285 172.303 101.056 173.396L100.888 179.868C98.149 180.234 95.3933 180.461 92.6314 180.55C89.8289 180.652 87.023 180.605 84.2254 180.41C82.744 180.311 81.2691 180.13 79.8076 179.868C79.0417 179.728 78.2478 179.569 77.4072 179.336C76.4404 179.086 75.5016 178.739 74.6052 178.299C73.9417 177.98 73.3152 177.588 72.7372 177.132C72.328 176.806 71.9497 176.443 71.6071 176.048C71.393 175.795 71.1934 175.53 71.0093 175.254C70.9159 175.096 70.8132 174.937 70.7291 174.778L70.6077 174.554L69.9632 173.237C69.7671 172.798 69.6083 172.368 69.4402 171.929C68.8509 170.294 68.4254 168.605 68.17 166.886C67.236 160.394 67.9738 154.604 68.9452 148.972C69.4682 146.17 70.0847 143.368 70.8132 140.706C71.1868 139.351 71.5791 137.997 71.9994 136.661C72.4197 135.326 72.868 134.037 73.4097 132.571L85.7012 136.998Z" fill="#B55B52"/>
<path d="M77.0612 125.275C85.8875 122.94 91.1272 130.169 88.1384 142.087C85.1496 154.005 84.1503 154.453 84.1503 154.453L65.9466 151.418C68.1882 139.743 68.0107 127.657 77.0612 125.275Z" fill="#3B5CAA"/>
<path d="M105.577 170.808L104.204 170.686C100.3 170.686 99.6273 171.751 97.2269 173.983L96.2929 178.896C102.597 182.119 105.978 178.579 105.988 178.579H111.825L109.771 173.909C109.412 173.065 108.834 172.332 108.096 171.786C107.359 171.241 106.489 170.903 105.577 170.808Z" fill="#B55B52"/>
<path d="M83.7852 97.8257C85.373 106.334 85.8681 111.397 90.7435 115.198C98.0661 120.905 108.153 115.478 109.143 106.624C110.031 98.657 107.275 86.076 98.4771 83.8438C96.5149 83.3592 94.4622 83.3768 92.5086 83.8949C90.555 84.4131 88.7635 85.4151 87.2994 86.8084C85.8353 88.2018 84.7458 89.9416 84.1316 91.8671C83.5174 93.7927 83.3983 95.842 83.7852 97.8257Z" fill="#B55B52"/>
<path d="M100.643 100.796C106.714 100.31 104.94 93.9121 103.063 92.5765C105.911 91.493 107.873 86.9724 105.136 83.8716C106.742 79.6779 102.147 74.625 94.0868 75.3815C88.2026 75.9232 87.5488 79.0335 87.5488 79.0335C87.5488 79.0335 80.4971 78.2956 77.5643 84.1144C75.0612 89.102 78.0967 91.7639 78.0967 91.7639C78.0967 91.7639 72.8289 93.2956 74.286 100.17C75.8364 107.586 81.5338 105.867 81.5338 105.867C81.5338 105.867 80.2542 112.667 87.9597 112.76C94.6191 112.844 94.7032 107.857 94.7032 107.857C94.7032 107.857 103.333 107.053 100.643 100.796Z" fill="#263238"/>
<path d="M96.1238 101.291C96.8046 103.116 98.1349 104.626 99.8598 105.531C102.083 106.671 103.783 104.308 103.39 101.879C103.035 99.703 101.139 96.9103 98.7951 96.7796C96.4507 96.6488 95.2926 99.0305 96.1238 101.291Z" fill="#B55B52"/>
<path d="M186.676 311.759L194.979 308.387L189.113 288.446L180.81 291.808L186.676 311.759Z" fill="#B55B52"/>
<path opacity="0.2" d="M183.659 301.485L192.046 298.402L189.113 288.446L180.81 291.808L183.659 301.485Z" fill="black"/>
<path d="M194.261 305.062L184.762 308.359C184.682 308.384 184.608 308.424 184.544 308.477C184.48 308.53 184.426 308.595 184.387 308.669C184.348 308.743 184.324 308.824 184.316 308.907C184.308 308.99 184.317 309.073 184.342 309.153L186.49 316.831C186.628 317.226 186.916 317.551 187.291 317.736C187.667 317.922 188.1 317.952 188.498 317.821C191.776 316.607 193.103 315.953 197.156 314.197C201.146 312.528 205.049 310.657 208.85 308.593C212.016 306.725 210.111 303.54 208.57 304.063C204.918 305.296 198.931 306.099 195.895 305.053C195.365 304.874 194.789 304.877 194.261 305.062Z" fill="#263238"/>
<path d="M119.986 196.717C119.986 196.717 182.742 202.321 184.367 220.376C187.636 257.11 192.652 292.527 192.652 292.527L179.884 297.197C179.884 297.197 164.258 256.848 164.464 228.081C146.363 222.972 98.766 230.472 90.9857 216.509C84.1115 204.18 90.1451 195.326 90.1451 195.326L119.986 196.717Z" fill="#263238"/>
<path d="M178.932 300.102L194.829 294.732L194.138 287.493L176.214 293.266L178.932 300.102Z" fill="#DCEBDF"/>
<path d="M197.76 305.445C196.996 305.69 196.206 305.85 195.407 305.921C195.366 305.926 195.325 305.919 195.288 305.901C195.252 305.883 195.221 305.854 195.201 305.818C195.181 305.785 195.17 305.746 195.17 305.706C195.17 305.667 195.181 305.628 195.201 305.594C195.407 305.314 197.237 302.848 198.405 302.886C198.538 302.894 198.668 302.934 198.782 303.004C198.896 303.075 198.991 303.172 199.059 303.287C199.18 303.452 199.256 303.646 199.277 303.85C199.298 304.053 199.265 304.259 199.18 304.445C198.846 304.942 198.341 305.298 197.76 305.445ZM195.892 305.445C197.508 305.221 198.61 304.791 198.862 304.259C198.915 304.137 198.933 304.002 198.915 303.871C198.897 303.739 198.843 303.615 198.76 303.511C198.731 303.451 198.686 303.4 198.63 303.364C198.574 303.328 198.509 303.308 198.442 303.306C197.77 303.278 196.612 304.483 195.846 305.445H195.892Z" fill="#407BFF"/>
<path d="M195.454 305.912C195.42 305.921 195.385 305.921 195.351 305.912C195.317 305.906 195.284 305.892 195.257 305.871C195.229 305.849 195.207 305.822 195.192 305.79C195.192 305.687 194.118 303.324 194.679 302.204C194.751 302.06 194.855 301.935 194.983 301.838C195.111 301.741 195.259 301.674 195.416 301.643C195.588 301.586 195.775 301.589 195.944 301.651C196.114 301.714 196.258 301.833 196.35 301.989C196.864 302.848 196.22 305.043 195.557 305.837C195.531 305.872 195.495 305.898 195.454 305.912ZM195.454 302.082C195.374 302.109 195.301 302.152 195.238 302.209C195.176 302.265 195.125 302.333 195.09 302.409C194.753 303.072 195.164 304.492 195.473 305.286C195.986 304.408 196.36 302.773 196.024 302.213C195.958 302.11 195.846 301.989 195.547 302.054L195.454 302.082Z" fill="#407BFF"/>
<path d="M142.245 317.689L151.118 317.269L152.565 296.319L143.692 296.739L142.245 317.689Z" fill="#B55B52"/>
<path d="M151.323 315.757L141.273 315.439C141.19 315.433 141.106 315.443 141.026 315.469C140.947 315.495 140.873 315.537 140.81 315.591C140.746 315.646 140.694 315.713 140.657 315.788C140.619 315.862 140.597 315.944 140.591 316.027L139.853 323.957C139.846 324.168 139.88 324.378 139.954 324.575C140.028 324.772 140.14 324.953 140.285 325.106C140.429 325.26 140.602 325.384 140.794 325.47C140.986 325.557 141.193 325.604 141.404 325.61C144.906 325.657 146.578 325.508 150.996 325.61C153.714 325.694 159.066 326.096 162.792 325.61C166.519 325.125 165.949 321.473 164.324 321.333C160.485 321.024 155.339 318.372 152.883 316.308C152.441 315.95 151.891 315.756 151.323 315.757Z" fill="#263238"/>
<path d="M154.481 317.409C153.678 317.363 152.883 317.231 152.108 317.017C152.069 317.008 152.033 316.987 152.005 316.958C151.977 316.929 151.958 316.892 151.951 316.852C151.944 316.812 151.949 316.771 151.966 316.734C151.982 316.696 152.009 316.665 152.043 316.643C152.333 316.447 154.92 314.775 156.003 315.261C156.126 315.314 156.233 315.398 156.315 315.504C156.396 315.611 156.45 315.736 156.47 315.868C156.524 316.065 156.525 316.272 156.473 316.469C156.42 316.666 156.316 316.845 156.171 316.989C155.682 317.34 155.077 317.49 154.481 317.409ZM152.687 316.727C154.275 317.101 155.489 317.092 155.891 316.727C155.983 316.629 156.047 316.508 156.077 316.377C156.106 316.245 156.1 316.108 156.059 315.98C156.05 315.915 156.025 315.854 155.986 315.801C155.947 315.749 155.895 315.708 155.835 315.681C155.219 315.401 153.706 316.101 152.613 316.727H152.687Z" fill="#407BFF"/>
<path d="M152.117 317.026C152.084 317.034 152.048 317.034 152.015 317.026C151.985 317.007 151.96 316.981 151.942 316.95C151.924 316.919 151.914 316.884 151.912 316.849C151.912 316.746 151.791 314.168 152.715 313.327C152.836 313.209 152.985 313.123 153.149 313.077C153.312 313.031 153.484 313.028 153.649 313.066C153.828 313.076 153.998 313.146 154.132 313.264C154.266 313.383 154.356 313.544 154.387 313.72C154.555 314.7 153.163 316.522 152.258 317.026C152.213 317.044 152.162 317.044 152.117 317.026ZM153.453 313.468C153.369 313.462 153.285 313.474 153.206 313.503C153.127 313.532 153.056 313.577 152.995 313.636C152.444 314.131 152.323 315.606 152.323 316.438C153.117 315.803 154.051 314.411 153.939 313.766C153.939 313.645 153.845 313.505 153.546 313.458L153.453 313.468Z" fill="#407BFF"/>
<path opacity="0.2" d="M143.695 296.739L152.577 296.319L151.736 308.302L142.891 308.293L143.695 296.739Z" fill="black"/>
<path d="M99.1421 195.718C99.1421 195.718 166.764 206.057 165.69 221.627C163.756 249.647 154.36 304.408 154.36 304.408L141.041 304.594C141.041 304.594 137.894 248.424 142.909 227.95C126.275 227.95 79.3506 227.371 72.9527 218.825C65.873 209.382 73.1488 194.541 73.1488 194.541L99.1421 195.718Z" fill="#263238"/>
<path d="M139.471 305.641L155.592 305.389L156.386 296.87L138.696 297.562L139.471 305.641Z" fill="#DCEBDF"/>
<path d="M111.049 124.332C105.604 123.268 81.0494 123.576 81.0494 123.576C78.5949 123.509 76.2045 124.365 74.3506 125.975C72.4967 127.585 71.3142 129.832 71.0369 132.271C70.1776 139.846 74.9877 156.77 75.1558 165.4C75.3613 176.001 73.3345 180.298 73.129 194.569L119.988 196.717C119.988 168.016 118.736 144.255 117.606 132.86C117.204 128.853 116.495 125.388 111.049 124.332Z" fill="#407BFF"/>
<path opacity="0.3" d="M111.049 124.332C105.604 123.268 81.0494 123.576 81.0494 123.576C78.5949 123.509 76.2045 124.365 74.3506 125.975C72.4967 127.585 71.3142 129.832 71.0369 132.271C70.1776 139.846 74.9877 156.77 75.1558 165.4C75.3613 176.001 73.3345 180.298 73.129 194.569L119.988 196.717C119.988 168.016 118.736 144.255 117.606 132.86C117.204 128.853 116.495 125.388 111.049 124.332Z" fill="white"/>
<path d="M117.467 133.373C118.933 138.416 120.409 143.6 121.931 148.662C123.454 153.725 125.013 158.815 126.769 163.606C127.199 164.83 127.703 165.969 128.114 167.146L128.833 168.799L128.927 169.005V169.108V169.164V169.098C128.765 168.81 128.564 168.546 128.329 168.314C128.011 168.006 127.89 167.978 127.862 167.978C128.07 168.165 128.311 168.314 128.572 168.416C129.029 168.637 129.5 168.827 129.982 168.986C131.038 169.35 132.224 169.677 133.429 170.004C138.313 171.247 143.647 172.199 148.84 173.311L148.672 179.783C145.884 180.159 143.078 180.387 140.266 180.465C137.419 180.575 134.569 180.522 131.729 180.306C130.218 180.198 128.715 180.005 127.227 179.727C126.442 179.578 125.63 179.391 124.752 179.139C123.71 178.847 122.707 178.433 121.763 177.906C121.01 177.474 120.319 176.943 119.708 176.327C119.241 175.846 118.84 175.306 118.513 174.721L118.195 174.133L117.14 172.134C116.523 170.826 115.851 169.509 115.272 168.211C114.123 165.586 113.114 162.99 112.105 160.384C111.097 157.778 110.237 155.172 109.369 152.557C107.641 147.299 106.081 142.096 104.699 136.679L117.467 133.373Z" fill="#B55B52"/>
<path d="M104.158 128.171C110.565 121.633 118.756 125.201 122.277 137.007C125.799 148.813 125.163 149.672 125.163 149.672L107.95 156.35C103.887 145.105 97.6011 134.831 104.158 128.171Z" fill="#3B5CAA"/>
<path d="M153.416 170.808L152.043 170.686C148.139 170.686 147.476 171.751 145.075 173.983L144.141 178.896C150.446 182.119 153.827 178.579 153.827 178.579H159.674L157.61 173.909C157.253 173.063 156.675 172.33 155.937 171.784C155.2 171.238 154.329 170.901 153.416 170.808Z" fill="#B55B52"/>
<path d="M75.1842 231.369H135.035C136.35 231.369 137.417 230.302 137.417 228.987V225.139C137.417 223.823 136.35 222.757 135.035 222.757H75.1842C73.8688 222.757 72.8025 223.823 72.8025 225.139V228.987C72.8025 230.302 73.8688 231.369 75.1842 231.369Z" fill="#407BFF"/>
<path d="M75.4545 327.244H72.8019L75.8561 231.359H79.5267L75.4545 327.244Z" fill="#407BFF"/>
<path opacity="0.4" d="M75.4545 327.244H72.8019L75.8561 231.359H79.5267L75.4545 327.244Z" fill="white"/>
<path d="M99.85 327.244H102.503L99.4577 231.359H95.7871L99.85 327.244Z" fill="#407BFF"/>
<path opacity="0.4" d="M99.85 327.244H102.503L99.4577 231.359H95.7871L99.85 327.244Z" fill="white"/>
<path d="M110.368 327.244H107.715L110.769 231.359H114.44L110.368 327.244Z" fill="#407BFF"/>
<path opacity="0.4" d="M110.368 327.244H107.715L110.769 231.359H114.44L110.368 327.244Z" fill="white"/>
<path d="M134.763 327.244H137.416L134.371 231.359H130.7L134.763 327.244Z" fill="#407BFF"/>
<path opacity="0.4" d="M134.763 327.244H137.416L134.371 231.359H130.7L134.763 327.244Z" fill="white"/>
<g opacity="0.3">
<path opacity="0.3" d="M75.8577 231.359H79.5283L79.3508 235.432H75.7269L75.8577 231.359Z" fill="#407BFF"/>
<path opacity="0.3" d="M99.5819 235.431H95.9579L95.7898 231.359H99.4511L99.5819 235.431Z" fill="#407BFF"/>
<path opacity="0.3" d="M114.433 231.359L114.265 235.431H110.641L110.771 231.359H114.433Z" fill="#407BFF"/>
<path opacity="0.3" d="M134.502 235.431H130.869L130.701 231.359H134.371L134.502 235.431Z" fill="#407BFF"/>
</g>
<path d="M312.325 114.162H162.727C161.564 114.174 160.412 113.945 159.343 113.489C158.273 113.033 157.31 112.36 156.514 111.513C155.718 110.666 155.106 109.663 154.717 108.568C154.329 107.472 154.171 106.308 154.255 105.149L159.962 10.469C160.141 8.04322 161.223 5.77258 162.993 4.10436C164.763 2.43615 167.094 1.49129 169.526 1.4559H319.088C320.25 1.44382 321.402 1.67295 322.472 2.12882C323.541 2.58469 324.504 3.2574 325.3 4.10443C326.096 4.95146 326.708 5.9544 327.097 7.04989C327.486 8.14538 327.643 9.30959 327.559 10.469L321.843 105.186C321.657 107.598 320.579 109.854 318.819 111.514C317.06 113.174 314.744 114.118 312.325 114.162Z" fill="#6F97F6"/>
<path d="M182.743 94.1455L196.538 141.341L237.466 94.1455H182.743Z" fill="#6F97F6"/>
<path opacity="0.1" d="M305.031 76.0638H221.195C220.543 76.0706 219.897 75.9422 219.297 75.6867C218.697 75.4313 218.157 75.0542 217.71 74.5794C217.263 74.1046 216.92 73.5424 216.702 72.9282C216.483 72.3139 216.394 71.6611 216.441 71.0109L219.644 17.941C219.745 16.581 220.351 15.3079 221.343 14.3727C222.335 13.4374 223.642 12.9077 225.006 12.888H308.841C309.495 12.874 310.145 12.9976 310.748 13.2506C311.351 13.5036 311.894 13.8805 312.343 14.3569C312.791 14.8333 313.134 15.3984 313.35 16.0159C313.565 16.6333 313.649 17.2891 313.595 17.941L310.392 71.0109C310.292 72.3708 309.686 73.6439 308.693 74.5792C307.701 75.5145 306.394 76.0441 305.031 76.0638Z" fill="white"/>
<path opacity="0.1" d="M260.18 98.9554H176.335C175.683 98.961 175.038 98.8316 174.44 98.5756C173.841 98.3195 173.302 97.9423 172.856 97.4676C172.41 96.993 172.068 96.4311 171.85 95.8176C171.632 95.204 171.543 94.552 171.59 93.9025L174.793 40.8326C174.894 39.4743 175.498 38.2025 176.489 37.2674C177.479 36.3324 178.783 35.8017 180.145 35.7797H263.99C264.644 35.767 265.292 35.8915 265.894 36.1451C266.496 36.3988 267.038 36.7759 267.485 37.2521C267.933 37.7283 268.275 38.293 268.49 38.9098C268.705 39.5265 268.789 40.1816 268.735 40.8326L265.532 93.9025C265.431 95.2609 264.827 96.5326 263.836 97.4677C262.846 98.4028 261.542 98.9335 260.18 98.9554Z" fill="white"/>
<g opacity="0.5">
<path opacity="0.5" d="M175.226 9.69397C175.209 10.4112 174.924 11.0961 174.428 11.6145C173.932 12.1329 173.261 12.4473 172.545 12.496C172.205 12.4791 171.872 12.3909 171.568 12.237C171.264 12.0832 170.996 11.8671 170.781 11.6028C170.566 11.3386 170.409 11.032 170.32 10.7032C170.232 10.3743 170.213 10.0305 170.266 9.69397C170.287 8.9781 170.573 8.29546 171.068 7.77795C171.563 7.26045 172.232 6.94479 172.947 6.89197C173.287 6.90881 173.62 6.99703 173.924 7.15091C174.227 7.30478 174.496 7.52087 174.71 7.78512C174.925 8.04938 175.082 8.35589 175.171 8.68475C175.26 9.01361 175.278 9.35746 175.226 9.69397Z" fill="white"/>
<path opacity="0.5" d="M184.368 9.6936C184.349 10.4101 184.064 11.0939 183.569 11.6119C183.073 12.1298 182.403 12.4448 181.688 12.4956C181.347 12.48 181.013 12.3927 180.708 12.2394C180.403 12.0861 180.134 11.8702 179.918 11.6058C179.702 11.3414 179.544 11.0344 179.455 10.7049C179.365 10.3755 179.347 10.0308 179.399 9.6936C179.421 8.97773 179.706 8.2951 180.201 7.77759C180.696 7.26008 181.366 6.94443 182.08 6.8916C182.42 6.90861 182.754 6.99685 183.058 7.15063C183.362 7.3044 183.631 7.52029 183.846 7.78435C184.062 8.04841 184.22 8.35477 184.31 8.68363C184.4 9.0125 184.42 9.35657 184.368 9.6936Z" fill="white"/>
<path opacity="0.5" d="M193.577 9.6936C193.561 10.4108 193.276 11.0958 192.78 11.6141C192.284 12.1325 191.613 12.4469 190.897 12.4956C190.557 12.4788 190.224 12.3905 189.92 12.2367C189.616 12.0828 189.348 11.8667 189.133 11.6024C188.918 11.3382 188.761 11.0317 188.672 10.7028C188.584 10.374 188.565 10.0301 188.618 9.6936C188.639 8.97773 188.925 8.2951 189.42 7.77759C189.915 7.26008 190.584 6.94443 191.299 6.8916C191.639 6.90844 191.972 6.99667 192.275 7.15054C192.579 7.30442 192.848 7.5205 193.062 7.78476C193.277 8.04901 193.434 8.35552 193.523 8.68438C193.612 9.01324 193.63 9.3571 193.577 9.6936Z" fill="white"/>
</g>
<path opacity="0.3" d="M311.167 113.284H161.605C160.412 113.293 159.229 113.055 158.131 112.586C157.033 112.116 156.045 111.424 155.227 110.554C154.41 109.684 153.781 108.654 153.381 107.529C152.98 106.405 152.817 105.209 152.901 104.018L158.617 9.33872C158.796 6.85346 159.901 4.52593 161.714 2.81574C163.526 1.10556 165.913 0.137048 168.405 0.101464H317.929C319.123 0.0920827 320.306 0.329717 321.403 0.799434C322.501 1.26915 323.49 1.9608 324.307 2.83092C325.125 3.70105 325.753 4.73084 326.154 5.85561C326.554 6.98036 326.718 8.17578 326.634 9.36675L320.927 104.046C320.746 106.526 319.644 108.848 317.838 110.558C316.032 112.267 313.653 113.239 311.167 113.284ZM168.405 0.577806C166.029 0.606784 163.75 1.52716 162.02 3.15663C160.29 4.7861 159.236 7.00581 159.065 9.37608L153.349 104.056C153.266 105.184 153.418 106.316 153.796 107.383C154.174 108.449 154.768 109.425 155.543 110.249C156.317 111.073 157.254 111.728 158.294 112.172C159.335 112.615 160.456 112.838 161.587 112.826H311.167C313.542 112.795 315.82 111.874 317.549 110.245C319.279 108.616 320.334 106.397 320.507 104.028L326.214 9.34806C326.294 8.21678 326.138 7.08114 325.757 6.01309C325.375 4.94503 324.776 3.96783 323.998 3.14338C323.219 2.31892 322.277 1.66517 321.233 1.22354C320.188 0.781914 319.063 0.562028 317.929 0.577806H168.405Z" fill="#263238"/>
<path d="M230.182 57.934C229.547 59.279 228.968 60.4278 228.314 61.67C227.661 62.9123 227.007 64.0331 226.334 65.2006C224.961 67.5262 223.532 69.8705 222.001 72.0561C221.228 73.1769 220.438 74.2884 219.628 75.3905C218.778 76.4739 217.975 77.5761 217.069 78.6315C215.302 80.8189 213.395 82.8905 211.362 84.8332C210.849 85.3376 210.288 85.7672 209.746 86.2996C209.209 86.8038 208.641 87.2748 208.047 87.7099L206.253 89.0643L205.702 89.4472C205.458 89.6018 205.206 89.7421 204.946 89.8675C204.433 90.1137 203.894 90.3016 203.339 90.4279C202.243 90.684 201.103 90.6929 200.003 90.4538C198.903 90.2147 197.87 89.7336 196.979 89.0456C196.537 88.6969 196.133 88.3024 195.774 87.8687L195.522 87.5325L195.4 87.3644L195.354 87.2896L195.185 86.9908L194.513 85.7766C194.307 85.3843 194.167 85.0107 193.999 84.6278C193.411 83.2184 192.93 81.7666 192.561 80.2846C191.911 77.5841 191.455 74.8405 191.197 72.0748C190.924 69.3814 190.806 66.6746 190.842 63.9677C190.862 63.1997 191.156 62.464 191.67 61.8933C192.184 61.3227 192.886 60.9546 193.648 60.8554C194.409 60.7562 195.182 60.9325 195.825 61.3524C196.468 61.7724 196.94 62.4084 197.156 63.1458V63.2578C198.394 68.0181 199.925 72.6971 201.742 77.2678C202.158 78.2349 202.642 79.1712 203.19 80.0698C203.311 80.2566 203.433 80.4808 203.554 80.6396L203.909 81.0692L203.993 81.1813L203.946 81.1066L203.844 80.9665C203.697 80.7751 203.528 80.6025 203.339 80.4528C202.966 80.1521 202.533 79.9354 202.069 79.8176C201.604 79.7193 201.124 79.7193 200.659 79.8176C200.417 79.8686 200.182 79.947 199.958 80.0511C199.837 80.0511 199.734 80.1726 199.622 80.2286C199.51 80.2847 199.342 80.4248 199.463 80.322L200.631 79.1825C201.023 78.8276 201.406 78.398 201.789 77.987C202.172 77.5761 202.564 77.1744 202.938 76.7354C206.017 73.0423 208.82 69.1277 211.325 65.0231C212.604 62.9403 213.865 60.8201 215.061 58.6719L216.864 55.4402L218.573 52.2833L218.666 52.1152C219.477 50.6642 220.817 49.5825 222.406 49.096C223.995 48.6095 225.711 48.7558 227.195 49.5044C228.679 50.253 229.816 51.546 230.369 53.1133C230.923 54.6807 230.849 56.4011 230.164 57.9153L230.182 57.934Z" fill="#263238"/>
<path d="M191.719 63.5567L187.171 60.9509L192.065 55.954C193.499 57.0168 194.829 58.2147 196.034 59.5312C196.318 59.8324 196.528 60.196 196.646 60.5927C196.764 60.9895 196.788 61.4084 196.716 61.816C196.643 62.2236 196.476 62.6085 196.228 62.94C195.98 63.2714 195.658 63.5402 195.287 63.7249C194.723 63.9865 194.104 64.1079 193.483 64.0786C192.861 64.0494 192.256 63.8703 191.719 63.5567Z" fill="#FFC3BD"/>
<path d="M186.135 55.5999L188.61 53.8346C188.931 53.6007 189.332 53.5028 189.726 53.5623C190.119 53.6217 190.473 53.8336 190.711 54.1522L192.065 55.9548L187.171 60.9517L185.63 57.4398C185.49 57.1219 185.464 56.7654 185.556 56.4303C185.648 56.0953 185.852 55.802 186.135 55.5999Z" fill="#FFC3BD"/>
<path d="M220.384 53.75C220.755 52.5295 221.455 51.4349 222.407 50.5863C223.36 49.7377 224.528 49.1681 225.783 48.9399C227.596 48.5393 229.434 48.2585 231.284 48.0993C236.855 47.8819 242.433 47.9817 247.993 48.3982C250.907 48.5943 253.887 49.0053 256.259 49.3976H256.343C257.599 49.606 258.722 50.3041 259.464 51.3389C260.207 52.3737 260.508 53.6606 260.303 54.9175C259.136 61.661 255.708 73.392 255.334 84.4599C254.839 98.993 255.063 107.362 254.811 110.864L217.405 110.145C214.799 74.6249 218.04 61.7918 220.384 53.75Z" fill="white"/>
<path d="M257.341 48.8462H257.219C254.716 48.4353 251.615 47.9963 248.505 47.7908L246.842 47.6974C245.208 54.4595 235.466 65.8357 232.515 83.0773C231.375 68.6657 230.497 53.6003 232.169 47.7254C229.526 47.8058 226.888 48.0271 224.268 48.3886C222.882 48.7021 221.604 49.3771 220.564 50.3451C219.523 51.3131 218.758 52.5394 218.346 53.8991C216.048 60.6613 211.659 75.8108 214.358 113.059H255.93C256.201 109.323 255.23 101.477 256.734 89.4005C258.181 77.7068 260.264 61.7915 261.488 54.6837C261.707 53.3603 261.394 52.0039 260.617 50.9103C259.84 49.8167 258.662 49.0747 257.341 48.8462Z" fill="#263238"/>
<path opacity="0.2" d="M231.63 111.116C231.567 111.119 231.506 111.097 231.459 111.055C231.412 111.013 231.383 110.955 231.378 110.892C230.5 100.384 232.144 85.3003 232.162 85.1415C232.166 85.1096 232.176 85.0786 232.191 85.0504C232.207 85.0223 232.228 84.9975 232.253 84.9775C232.278 84.9575 232.307 84.9427 232.338 84.934C232.369 84.9253 232.401 84.9228 232.433 84.9267C232.498 84.9338 232.558 84.9661 232.6 85.0166C232.642 85.0672 232.663 85.1321 232.657 85.1976C232.657 85.347 230.995 100.394 231.873 110.845C231.877 110.878 231.874 110.911 231.865 110.942C231.855 110.974 231.84 111.003 231.819 111.029C231.798 111.054 231.772 111.075 231.743 111.09C231.713 111.105 231.681 111.114 231.649 111.116H231.63Z" fill="white"/>
<path opacity="0.3" d="M255.874 63.6321C254.333 70.6184 255.155 80.2946 256.808 89.1209C258.032 79.2112 259.704 66.35 260.927 58.3923C259.218 57.2528 257.098 58.0561 255.874 63.6321Z" fill="black"/>
<path d="M232.078 48.0529C236.926 46.9882 237.766 43.9994 237.421 40.693C237.335 39.867 237.201 39.0467 237.019 38.2366L243.071 33.2864L247.527 29.6625C246.312 35.0236 244.977 44.8026 248.638 48.4546C248.638 48.4546 245.649 53.3581 237.337 52.7603C230.313 52.2559 232.078 48.0529 232.078 48.0529Z" fill="#FFC3BD"/>
<path d="M239.447 51.5272L238.102 52.7975L242.398 54.4133L241.838 52.7788L239.447 51.5272Z" fill="#E0E0E0"/>
<path d="M242.735 56.6917C242.735 56.6917 241.044 52.4233 239.447 51.5173C242.588 50.7683 245.466 49.1762 247.769 46.9127L250.319 47.9308C250.319 47.9308 251.122 52.881 242.735 56.6917Z" fill="#F5F5F5"/>
<path d="M237.092 51.1903L238.101 52.7968L233.581 53.1891L234.487 51.76L237.092 51.1903Z" fill="#E0E0E0"/>
<path d="M231.312 55.4867C232.969 53.7222 234.927 52.2673 237.094 51.1903C234.637 50.4618 234.488 47.0807 234.488 47.0807L232.106 47.5383C232.106 47.5383 227.735 51.788 231.312 55.4867Z" fill="#F5F5F5"/>
<path opacity="0.2" d="M237.018 38.2269C237.199 39.0403 237.333 39.8636 237.419 40.6926C239.679 40.2817 242.706 37.8906 243.023 35.6023C243.13 34.835 243.152 34.0582 243.089 33.286L237.018 38.2269Z" fill="black"/>
<path d="M229.667 13.7834C227.501 16.4453 227.706 26.0749 232.292 26.1869C236.878 26.299 233.609 8.92662 229.667 13.7834Z" fill="#263238"/>
<path d="M249.421 20.789C248.963 28.0835 249.057 32.3706 245.377 36.144C239.847 41.8134 230.881 38.5537 229.153 31.2965C227.612 24.7585 228.621 13.9334 235.747 10.9727C237.303 10.3067 239.005 10.0537 240.688 10.2381C242.37 10.4225 243.977 11.038 245.352 12.0252C246.727 13.0123 247.824 14.3377 248.537 15.873C249.25 17.4083 249.554 19.1016 249.421 20.789Z" fill="#FFC3BD"/>
<path d="M245.833 14.7186C241.247 19.2672 247.206 22.6015 244.899 25.0486C249.224 27.3089 247.636 28.9714 247.636 28.9714C247.188 30.215 247.188 31.5759 247.636 32.8195C252.511 31.5679 261.562 15.3724 251.68 12.8879C245.768 15.5218 245.833 14.7186 245.833 14.7186Z" fill="#263238"/>
<path d="M247.712 17.9876C243.369 18.6601 237.905 16.5866 234.515 14.8307C231.124 13.0747 230.629 16.3904 231.881 17.3992C229.705 17.4739 226.949 15.7553 227.631 11.9166C228.257 8.41408 232.843 5.09838 239.371 8.05916C243.995 10.1513 249.692 7.39602 251.915 9.81508C254.138 12.2341 250.608 17.5299 247.712 17.9876Z" fill="#263238"/>
<path d="M250.683 13.2326C253.597 12.8496 253.718 11.0097 252.906 7.78735C256.053 12.2612 254.774 13.6342 252.906 14.7176C250.823 14.0171 250.683 13.2326 250.683 13.2326Z" fill="#263238"/>
<path d="M251.384 26.3837C250.738 27.8106 249.611 28.9645 248.199 29.6434C246.397 30.4559 245.481 28.7934 245.967 26.8414C246.406 25.0761 247.835 22.5356 249.703 22.5543C251.571 22.573 252.197 24.5811 251.384 26.3837Z" fill="#FFC3BD"/>
<path d="M238.035 22.9929C238.035 23.5813 237.717 24.067 237.334 24.0764C236.952 24.0857 236.671 23.6 236.671 22.9929C236.671 22.3858 236.989 21.9188 237.372 21.9188C237.755 21.9188 238.035 22.3952 238.035 22.9929Z" fill="#263238"/>
<path d="M231.348 23.05C231.348 23.6477 231.03 24.1241 230.638 24.1334C230.246 24.1428 229.937 23.6571 229.947 23.0593C229.956 22.4616 230.255 21.9852 230.647 21.9852C231.04 21.9852 231.348 22.4616 231.348 23.05Z" fill="#263238"/>
<path d="M233.87 23.2549C233.172 25.074 232.229 26.7896 231.068 28.3545C231.47 28.6372 231.929 28.8294 232.413 28.9181C232.897 29.0067 233.394 28.9897 233.87 28.8682V23.2549Z" fill="#ED847E"/>
<path d="M236.225 30.4654C236.903 30.3895 237.558 30.1734 238.148 29.831C238.738 29.4885 239.25 29.0271 239.653 28.476C239.677 28.4376 239.686 28.391 239.676 28.3463C239.667 28.3016 239.64 28.2626 239.601 28.2378C239.563 28.2131 239.516 28.2046 239.472 28.2142C239.427 28.2238 239.388 28.2508 239.363 28.2892C238.914 28.8765 238.334 29.351 237.669 29.6752C237.004 29.9995 236.273 30.1645 235.534 30.1572C235.511 30.1572 235.488 30.1618 235.467 30.1708C235.446 30.1799 235.427 30.1931 235.411 30.2097C235.396 30.2263 235.383 30.246 235.376 30.2675C235.368 30.2889 235.364 30.3118 235.366 30.3347C235.366 30.3576 235.37 30.3802 235.379 30.4012C235.388 30.4223 235.402 30.4412 235.418 30.457C235.435 30.4727 235.454 30.4849 235.476 30.4928C235.497 30.5007 235.52 30.5041 235.543 30.5028C235.786 30.4654 236.01 30.4654 236.225 30.4654Z" fill="#263238"/>
<path d="M241.278 20.63C241.337 20.6267 241.393 20.6036 241.437 20.5646C241.474 20.5379 241.506 20.5038 241.529 20.4645C241.553 20.4252 241.568 20.3814 241.575 20.3359C241.581 20.2904 241.577 20.2441 241.565 20.1999C241.553 20.1557 241.531 20.1145 241.502 20.0789C241.182 19.6366 240.76 19.2772 240.273 19.0303C239.786 18.7834 239.247 18.6562 238.7 18.6592C238.655 18.6627 238.611 18.6752 238.571 18.6961C238.531 18.7169 238.495 18.7456 238.467 18.7805C238.438 18.8154 238.416 18.8557 238.404 18.8991C238.391 18.9424 238.387 18.9879 238.392 19.0328C238.401 19.1261 238.447 19.2122 238.518 19.2731C238.589 19.334 238.681 19.365 238.775 19.3597C239.209 19.3557 239.637 19.4573 240.023 19.6558C240.408 19.8544 240.74 20.1438 240.989 20.4992C241.023 20.5426 241.067 20.5771 241.117 20.5998C241.168 20.6226 241.223 20.6329 241.278 20.63Z" fill="#263238"/>
<path d="M228.64 20.9202C228.695 20.9126 228.748 20.8916 228.794 20.8591C228.839 20.8265 228.876 20.7834 228.901 20.7334C229.08 20.3292 229.351 19.973 229.694 19.6938C230.036 19.4146 230.44 19.2203 230.872 19.1269C230.918 19.1226 230.962 19.1087 231.002 19.0861C231.042 19.0634 231.077 19.0326 231.105 18.9956C231.132 18.9585 231.151 18.9162 231.161 18.8712C231.171 18.8262 231.171 18.7797 231.162 18.7346C231.146 18.6447 231.096 18.5641 231.024 18.5087C230.951 18.4534 230.86 18.4273 230.769 18.4358C230.225 18.5432 229.714 18.7789 229.278 19.1232C228.843 19.4676 228.496 19.9107 228.266 20.4158C228.227 20.4991 228.222 20.5943 228.251 20.6814C228.281 20.7686 228.343 20.8408 228.425 20.8828C228.492 20.914 228.566 20.9269 228.64 20.9202Z" fill="#263238"/>
<path d="M262.601 53.0678C263.74 55.4682 264.693 57.7378 265.627 60.0728C266.561 62.4078 267.392 64.7895 268.223 67.1712C269.854 72.0254 271.171 76.9796 272.165 82.0031C272.38 83.3014 272.622 84.5716 272.781 85.9073L272.903 86.8973L272.968 87.3923V87.6445V87.9901C273.061 88.9561 273.061 89.9288 272.968 90.8948C272.752 93.0085 272.024 95.0378 270.848 96.807C269.745 98.4275 268.297 99.7832 266.608 100.777C265.2 101.603 263.685 102.232 262.106 102.645C260.7 103.03 259.262 103.286 257.809 103.41C255.07 103.669 252.309 103.56 249.599 103.084C248.864 102.96 248.195 102.585 247.706 102.023C247.217 101.46 246.939 100.745 246.919 100C246.899 99.2555 247.139 98.5268 247.597 97.9391C248.056 97.3514 248.704 96.9413 249.431 96.779L249.767 96.7043C250.701 96.4895 251.925 96.228 252.971 95.9478C254.017 95.6676 255.082 95.3407 256.072 95.0138C257.801 94.4602 259.403 93.5715 260.789 92.3986C261.155 92.059 261.434 91.6361 261.601 91.1657C261.667 90.8358 261.667 90.4961 261.601 90.1663C261.57 89.9146 261.523 89.6651 261.461 89.4191L261.125 87.8967C260.91 86.8319 260.602 85.7298 260.322 84.6464C259.743 82.4515 259.089 80.2566 258.342 78.0523C257.594 75.8481 256.829 73.6532 256.016 71.4583C255.203 69.2634 254.344 67.0685 253.475 64.9203C252.607 62.7721 251.692 60.5118 250.823 58.4663V58.3729C250.124 56.8148 250.073 55.043 250.681 53.4473C251.289 51.8516 252.506 50.5627 254.064 49.8642C255.622 49.1656 257.394 49.1147 258.989 49.7225C260.585 50.3303 261.874 51.5471 262.573 53.1052L262.601 53.0678Z" fill="#263238"/>
<path d="M246.646 99.4699L242.527 101.45L249.645 103.981C249.645 103.981 254.389 102.468 252.092 99.8342L250.812 99.4325C248.757 98.76 247.749 98.8348 246.646 99.4699Z" fill="#FFC3BD"/>
<path d="M243.08 106.475L246.209 107.072C246.656 107.154 247.118 107.095 247.529 106.903C247.941 106.71 248.283 106.394 248.506 105.998L249.646 103.953L242.529 101.45L241.595 103.402C241.45 103.697 241.374 104.021 241.373 104.35C241.372 104.679 241.446 105.004 241.589 105.3C241.732 105.596 241.941 105.856 242.199 106.059C242.457 106.263 242.758 106.405 243.08 106.475Z" fill="#FFC3BD"/>
</svg>
