<?xml version="1.0" encoding="utf-8"?>
<!-- Generator: Adobe Illustrator 25.4.1, SVG Export Plug-In . SVG Version: 6.00 Build 0)  -->
<svg version="1.1" id="Layer_1" xmlns="http://www.w3.org/2000/svg" xmlns:xlink="http://www.w3.org/1999/xlink" x="0px" y="0px"
	 viewBox="0 0 339 196" style="enable-background:new 0 0 339 196;" xml:space="preserve">
<style type="text/css">
	.st0{fill:#6F97F6;}
	.st1{opacity:0.6;}
	.st2{opacity:0.6;fill:#263238;enable-background:new    ;}
	.st3{opacity:0.3;fill:#FFFFFF;enable-background:new    ;}
	.st4{opacity:0.9;fill:#FFFFFF;enable-background:new    ;}
	.st5{fill:#FFFFFF;}
	.st6{opacity:0.4;fill:#FFFFFF;enable-background:new    ;}
	.st7{opacity:0.2;enable-background:new    ;}
	.st8{fill:#F9F9F9;}
	.st9{opacity:0.5;fill:#FFFFFF;enable-background:new    ;}
	.st10{clip-path:url(#SVGID_00000060747828582877460680000015477004255160777398_);}
	.st11{fill:#FFC3BD;}
	.st12{opacity:0.3;enable-background:new    ;}
	.st13{opacity:0.3;fill:#263238;enable-background:new    ;}
	.st14{fill:#263238;}
	.st15{fill:#ED847E;}
	.st16{fill:#B55B52;}
	.st17{fill:#B65B52;}
	.st18{fill:#A02724;}
</style>
<path class="st0" d="M6.2,191.8h122.1c0.4,0,0.8-0.1,1.2-0.2c0.4-0.2,0.7-0.4,1-0.7c0.3-0.3,0.5-0.7,0.7-1c0.2-0.4,0.2-0.8,0.2-1.2
	l-2.9-87.2c0-0.9-0.4-1.7-1-2.3c-0.6-0.6-1.4-0.9-2.3-1H3.1c-0.4,0-0.8,0.1-1.2,0.2c-0.4,0.2-0.7,0.4-1,0.7
	c-0.3,0.3-0.5,0.7-0.7,1.1C0.1,100.6,0,101,0,101.5l2.9,87.2c0,0.9,0.4,1.7,1,2.3C4.5,191.5,5.4,191.8,6.2,191.8z"/>
<path class="st0" d="M7.2,191.8h122.1c0.4,0,0.8-0.1,1.2-0.2c0.4-0.2,0.7-0.4,1-0.7c0.3-0.3,0.5-0.7,0.7-1c0.2-0.4,0.2-0.8,0.2-1.2
	l-2.9-87.2c0-0.9-0.4-1.7-1-2.3c-0.6-0.6-1.4-0.9-2.3-1H4.1c-0.4,0-0.8,0.1-1.2,0.2c-0.4,0.2-0.7,0.4-1,0.7
	c-0.3,0.3-0.5,0.7-0.7,1.1C1.1,100.6,1,101,1,101.5l2.9,87.2c0,0.9,0.4,1.7,1,2.3C5.5,191.5,6.4,191.8,7.2,191.8z"/>
<g class="st1">
	<path class="st2" d="M7.2,191.8h122.1c0.4,0,0.8-0.1,1.2-0.2c0.4-0.2,0.7-0.4,1-0.7c0.3-0.3,0.5-0.7,0.7-1c0.2-0.4,0.2-0.8,0.2-1.2
		l-2.9-87.2c0-0.9-0.4-1.7-1-2.3c-0.6-0.6-1.4-0.9-2.3-1H4.1c-0.4,0-0.8,0.1-1.2,0.2c-0.4,0.2-0.7,0.4-1,0.7
		c-0.3,0.3-0.5,0.7-0.7,1.1C1.1,100.6,1,101,1,101.5l2.9,87.2c0,0.9,0.4,1.7,1,2.3C5.5,191.5,6.4,191.8,7.2,191.8z"/>
</g>
<path class="st0" d="M8.8,191.7h147.4c0.7,0,1.4,0.2,2,0.6c0.6,0.4,1.1,0.9,1.4,1.6c0.1,0.2,0.1,0.4,0.1,0.5c0,0.2-0.1,0.4-0.2,0.5
	c-0.1,0.2-0.2,0.3-0.4,0.4c-0.2,0.1-0.4,0.1-0.5,0.1H6.3c-0.2,0-0.4,0-0.5-0.1c-0.2-0.1-0.3-0.2-0.4-0.4c-0.1-0.2-0.2-0.3-0.2-0.5
	c0-0.2,0-0.4,0.1-0.5c0.3-0.7,0.8-1.2,1.4-1.6C7.4,191.9,8.1,191.7,8.8,191.7z"/>
<path class="st2" d="M156.2,191.7H38.6c-0.7,0-1.4,0.2-2.1,0.6c-0.6,0.4-1.1,0.9-1.4,1.6c-0.1,0.2-0.1,0.4-0.1,0.5
	c0,0.2,0.1,0.4,0.2,0.5c0.1,0.2,0.2,0.3,0.4,0.4c0.2,0.1,0.4,0.1,0.5,0.1h122.6c0.2,0,0.4,0,0.5-0.1c0.2-0.1,0.3-0.2,0.4-0.4
	c0.1-0.2,0.2-0.3,0.2-0.5c0-0.2,0-0.4-0.1-0.5c-0.3-0.7-0.8-1.2-1.4-1.6C157.7,191.9,156.9,191.7,156.2,191.7z"/>
<path class="st3" d="M85.9,194.1h30.6c0.4,0,0.7,0.1,1,0.4c0.3,0.3,0.4,0.6,0.4,1H84.5c0-0.4,0.1-0.7,0.4-1
	C85.2,194.2,85.5,194.1,85.9,194.1z"/>
<path class="st4" d="M129.5,185.5l-2.7-80.8c0-0.3-0.2-0.7-0.4-0.9c-0.2-0.2-0.6-0.4-0.9-0.4H5.1c-0.2,0-0.3,0-0.5,0.1
	c-0.2,0.1-0.3,0.2-0.4,0.3C4.1,103.9,4,104,4,104.2c-0.1,0.2-0.1,0.3-0.1,0.5l2.7,80.8c0,0.3,0.2,0.7,0.4,0.9
	c0.2,0.2,0.6,0.4,0.9,0.4h120.4c0.2,0,0.3-0.1,0.5-0.1c0.1-0.1,0.3-0.2,0.4-0.3c0.1-0.1,0.2-0.3,0.2-0.4
	C129.5,185.8,129.5,185.6,129.5,185.5z"/>
<path class="st5" d="M30.3,186.7H13.7l19.1-83.4h16.6L30.3,186.7z"/>
<path class="st5" d="M40.9,186.7h-6L54,103.4h6L40.9,186.7z"/>
<path class="st5" d="M101.9,186.7h-6l19.1-83.4h6L101.9,186.7z"/>
<path class="st6" d="M64.3,100.9c0,0.2,0.1,0.5,0.3,0.6c0.2,0.2,0.4,0.3,0.7,0.3c0.2,0,0.5-0.1,0.6-0.3c0.2-0.2,0.3-0.4,0.3-0.6
	c0-0.2-0.1-0.5-0.3-0.6c-0.2-0.2-0.4-0.3-0.7-0.3c-0.2,0-0.5,0.1-0.6,0.3C64.4,100.5,64.3,100.7,64.3,100.9z"/>
<path class="st0" d="M332.8,191.8H210.7c-0.4,0-0.8-0.1-1.2-0.2c-0.4-0.2-0.7-0.4-1-0.7c-0.3-0.3-0.5-0.7-0.7-1
	c-0.2-0.4-0.2-0.8-0.2-1.2l2.9-87.2c0-0.9,0.4-1.7,1-2.3c0.6-0.6,1.4-0.9,2.3-1h122.1c0.4,0,0.8,0.1,1.2,0.2c0.4,0.2,0.7,0.4,1,0.7
	c0.3,0.3,0.5,0.7,0.7,1.1c0.2,0.4,0.2,0.8,0.2,1.2l-2.9,87.2c0,0.9-0.4,1.7-1,2.3C334.5,191.5,333.6,191.8,332.8,191.8z"/>
<path class="st2" d="M332.8,191.8H210.7c-0.4,0-0.8-0.1-1.2-0.2c-0.4-0.2-0.7-0.4-1-0.7c-0.3-0.3-0.5-0.7-0.7-1
	c-0.2-0.4-0.2-0.8-0.2-1.2l2.9-87.2c0-0.9,0.4-1.7,1-2.3c0.6-0.6,1.4-0.9,2.3-1h122.1c0.4,0,0.8,0.1,1.2,0.2c0.4,0.2,0.7,0.4,1,0.7
	c0.3,0.3,0.5,0.7,0.7,1.1c0.2,0.4,0.2,0.8,0.2,1.2l-2.9,87.2c0,0.9-0.4,1.7-1,2.3C334.5,191.5,333.6,191.8,332.8,191.8z"/>
<path class="st0" d="M331.8,191.8H209.7c-0.4,0-0.8-0.1-1.2-0.2c-0.4-0.2-0.7-0.4-1-0.7c-0.3-0.3-0.5-0.7-0.7-1
	c-0.2-0.4-0.2-0.8-0.2-1.2l2.9-87.2c0-0.9,0.4-1.7,1-2.3c0.6-0.6,1.4-0.9,2.3-1h122.1c0.4,0,0.8,0.1,1.2,0.2c0.4,0.2,0.7,0.4,1,0.7
	c0.3,0.3,0.5,0.7,0.7,1.1c0.1,0.4,0.2,0.8,0.2,1.2l-2.9,87.2c0,0.9-0.4,1.7-1,2.3C333.5,191.5,332.6,191.8,331.8,191.8z"/>
<path class="st0" d="M330.2,191.7H182.8c-0.7,0-1.4,0.2-2.1,0.6s-1.1,0.9-1.4,1.6c-0.1,0.2-0.1,0.4-0.1,0.5c0,0.2,0.1,0.4,0.2,0.5
	c0.1,0.2,0.2,0.3,0.4,0.4c0.2,0.1,0.4,0.1,0.5,0.1h152.4c0.2,0,0.4,0,0.5-0.1s0.3-0.2,0.4-0.4c0.1-0.2,0.2-0.3,0.2-0.5
	c0-0.2,0-0.4-0.1-0.5c-0.3-0.7-0.8-1.2-1.4-1.6C331.6,191.9,330.9,191.7,330.2,191.7z"/>
<path class="st2" d="M330.2,191.7h-22.6c-0.7,0-1.4,0.2-2.1,0.6c-0.6,0.4-1.1,0.9-1.4,1.6c-0.1,0.2-0.1,0.4-0.1,0.5
	c0,0.2,0.1,0.4,0.2,0.5c0.1,0.2,0.2,0.3,0.4,0.4c0.2,0.1,0.4,0.1,0.5,0.1h27.5c0.2,0,0.4,0,0.5-0.1c0.2-0.1,0.3-0.2,0.4-0.4
	c0.1-0.2,0.2-0.3,0.2-0.5c0-0.2,0-0.4-0.1-0.5c-0.3-0.6-0.8-1.2-1.4-1.6S330.9,191.7,330.2,191.7z"/>
<path class="st7" d="M253.1,194.1h-30.6c-0.4,0-0.7,0.1-1,0.4c-0.3,0.3-0.4,0.6-0.4,1h33.4c0-0.4-0.1-0.7-0.4-1
	C253.8,194.2,253.5,194.1,253.1,194.1z"/>
<path class="st4" d="M209.5,185.5l2.7-80.8c0-0.3,0.2-0.7,0.4-0.9c0.2-0.2,0.6-0.4,0.9-0.4H334c0.2,0,0.3,0,0.5,0.1
	c0.1,0.1,0.3,0.2,0.4,0.3c0.1,0.1,0.2,0.3,0.3,0.4c0.1,0.2,0.1,0.3,0.1,0.5l-2.7,80.8c0,0.3-0.2,0.7-0.4,0.9
	c-0.2,0.2-0.6,0.4-0.9,0.4H210.7c-0.2,0-0.3,0-0.5-0.1c-0.2-0.1-0.3-0.2-0.4-0.3c-0.1-0.1-0.2-0.3-0.3-0.4
	C209.5,185.8,209.5,185.6,209.5,185.5z"/>
<path class="st5" d="M295.1,186.7h-16.6l19.1-83.4h16.6L295.1,186.7z"/>
<path class="st5" d="M223,186.7h-6l19.1-83.4h6L223,186.7z"/>
<path class="st5" d="M308.7,186.7h-6l19.1-83.4h6L308.7,186.7z"/>
<path id="big-gear" class="st8" d="M146.2,0.8l11.7,0.8c0.5,0,0.9,0.2,1.3,0.4c0.4,0.3,0.7,0.6,0.9,1l1.2,2.7c0.3,0.6,0.8,1,1.3,1.3
	c1.5,0.6,2.9,1.3,4.3,2.1c0.5,0.3,1.2,0.4,1.8,0.3l2.9-0.7c0.4-0.1,0.9-0.1,1.3,0.1c0.4,0.1,0.8,0.4,1.1,0.7l7.7,8.8
	c0.3,0.3,0.5,0.8,0.6,1.2c0.1,0.4,0,0.9-0.1,1.3l-1.1,2.8c-0.2,0.6-0.2,1.3,0,1.9c0.6,1.5,1.1,3,1.5,4.5c0.2,0.6,0.5,1.2,1.1,1.5
	l2.6,1.6c0.4,0.2,0.7,0.6,0.9,1c0.2,0.4,0.3,0.9,0.3,1.3l-0.8,11.7c0,0.5-0.2,0.9-0.4,1.3c-0.3,0.4-0.6,0.7-1,0.8l-2.7,1.2
	c-0.6,0.3-1,0.8-1.3,1.3c-0.6,1.5-1.3,2.9-2.1,4.2c-0.3,0.5-0.4,1.2-0.3,1.8l0.7,2.9c0.1,0.4,0.1,0.9-0.1,1.3
	c-0.1,0.4-0.4,0.8-0.7,1.1l-8.8,7.7c-0.3,0.3-0.8,0.5-1.2,0.6c-0.4,0.1-0.9,0-1.3-0.1l-2.8-1.1c-0.6-0.2-1.3-0.2-1.9,0
	c-1.5,0.6-3,1.1-4.5,1.5c-0.6,0.2-1.2,0.5-1.5,1.1l-1.6,2.5c-0.2,0.4-0.6,0.7-1,0.9c-0.4,0.2-0.9,0.3-1.3,0.3l-11.7-0.8
	c-0.5,0-0.9-0.2-1.3-0.4c-0.4-0.3-0.7-0.6-0.9-1l-1.2-2.7c-0.3-0.6-0.8-1-1.3-1.3c-1.5-0.6-2.9-1.3-4.3-2.1
	c-0.5-0.3-1.2-0.4-1.8-0.3l-2.9,0.7c-0.4,0.1-0.9,0.1-1.3-0.1c-0.4-0.1-0.8-0.4-1.1-0.7l-7.7-8.8c-0.3-0.3-0.5-0.8-0.6-1.2
	c-0.1-0.4,0-0.9,0.1-1.3l1.1-2.8c0.2-0.6,0.2-1.3,0-1.9c-0.6-1.5-1.1-3-1.5-4.5c-0.2-0.6-0.5-1.2-1.1-1.5l-2.6-1.6
	c-0.4-0.2-0.7-0.6-0.9-1c-0.2-0.4-0.3-0.9-0.3-1.3l0.8-11.7c0-0.5,0.2-0.9,0.4-1.3c0.3-0.4,0.6-0.7,1-0.9l2.7-1.2
	c0.6-0.3,1-0.7,1.3-1.3c0.6-1.5,1.3-2.9,2.1-4.3c0.3-0.5,0.4-1.2,0.3-1.8l-0.7-2.9c-0.1-0.4-0.1-0.9,0.1-1.3
	c0.1-0.4,0.4-0.8,0.7-1.1l8.8-7.7c0.3-0.3,0.8-0.5,1.2-0.6c0.4-0.1,0.9,0,1.3,0.1l2.8,1.1c0.6,0.2,1.3,0.2,1.9,0
	c1.5-0.6,3-1.1,4.5-1.5c0.6-0.2,1.2-0.5,1.5-1.1l1.6-2.6c0.2-0.4,0.6-0.7,1-0.9C145.3,0.8,145.8,0.8,146.2,0.8z M127.4,37.3
	c-0.3,4.4,0.7,8.7,2.9,12.5c2.2,3.8,5.5,6.9,9.4,8.8c3.9,1.9,8.4,2.7,12.7,2.1c4.4-0.6,8.4-2.4,11.7-5.3c3.3-2.9,5.7-6.7,6.8-10.9
	s1-8.7-0.4-12.9c-1.4-4.1-4-7.8-7.5-10.5c-3.5-2.7-7.7-4.3-12-4.5c-5.9-0.4-11.6,1.6-16.1,5.4C130.5,26,127.8,31.4,127.4,37.3z"/>
<g id="small-gear">
	<path class="st0" d="M192.5,50.1l4-1.4c0.2-0.1,0.4-0.1,0.7,0c0.2,0,0.4,0.2,0.6,0.3l0.7,0.6c0.2,0.2,0.5,0.3,0.8,0.3
		c0.6,0,1.1,0,1.6,0.1c0.2,0,0.3,0,0.5,0c0.2,0,0.3-0.1,0.4-0.2l0.7-0.5c0.2-0.1,0.4-0.2,0.6-0.2c0.2,0,0.4,0,0.6,0.1l3.8,1.9
		c0.2,0.1,0.4,0.2,0.5,0.4c0.1,0.2,0.2,0.4,0.2,0.6v0.9c0,0.3,0.1,0.6,0.4,0.8c0.4,0.4,0.8,0.8,1.1,1.2c0.2,0.2,0.5,0.4,0.8,0.5
		l0.9,0.1c0.2,0,0.4,0.1,0.6,0.3c0.2,0.1,0.3,0.3,0.4,0.5l1.4,4c0.1,0.2,0.1,0.4,0,0.7c0,0.2-0.2,0.4-0.3,0.6l-0.6,0.7
		c-0.2,0.2-0.3,0.5-0.3,0.8c0,0.6,0,1.1-0.1,1.6c0,0.2,0,0.3,0,0.5c0,0.2,0.1,0.3,0.2,0.4l0.5,0.7c0.1,0.2,0.2,0.4,0.2,0.6
		c0,0.2,0,0.4-0.1,0.6l-1.9,3.8c-0.1,0.2-0.2,0.4-0.4,0.5c-0.2,0.1-0.4,0.2-0.6,0.2h-0.9c-0.3,0-0.6,0.1-0.8,0.4
		c-0.4,0.4-0.8,0.7-1.2,1.1c-0.2,0.2-0.4,0.5-0.5,0.8l-0.1,0.9c0,0.2-0.1,0.4-0.3,0.6c-0.1,0.2-0.3,0.3-0.5,0.4l-4,1.4
		c-0.2,0.1-0.4,0.1-0.7,0c-0.2,0-0.4-0.2-0.6-0.3l-0.7-0.6c-0.2-0.2-0.5-0.3-0.8-0.3c-0.5,0-1.1,0-1.6-0.1c-0.2,0-0.3,0-0.5,0
		c-0.2,0-0.3,0.1-0.4,0.2l-0.7,0.5c-0.2,0.1-0.4,0.2-0.6,0.2c-0.2,0-0.4,0-0.6-0.1l-3.8-1.9c-0.2-0.1-0.4-0.2-0.5-0.4
		c-0.1-0.2-0.2-0.4-0.2-0.6v-0.9c0-0.3-0.1-0.6-0.4-0.8c-0.4-0.4-0.8-0.8-1.1-1.2c-0.1-0.1-0.2-0.2-0.3-0.3
		c-0.1-0.1-0.3-0.1-0.4-0.2l-0.9-0.1c-0.2,0-0.4-0.1-0.6-0.3s-0.3-0.3-0.4-0.5l-1.4-4c-0.1-0.2-0.1-0.4,0-0.7c0-0.2,0.2-0.4,0.3-0.6
		l0.6-0.7c0.2-0.2,0.3-0.5,0.3-0.9c0-0.6,0-1.1,0.1-1.6c0-0.3,0-0.6-0.2-0.9l-0.5-0.7c-0.1-0.2-0.2-0.4-0.2-0.6c0-0.2,0-0.4,0.1-0.6
		l1.9-3.8c0.1-0.2,0.2-0.4,0.4-0.5c0.2-0.1,0.4-0.2,0.6-0.2h0.9c0.3,0,0.6-0.1,0.8-0.4c0.4-0.4,0.8-0.8,1.2-1.1
		c0.2-0.2,0.4-0.5,0.5-0.8l0.1-0.9c0-0.2,0.1-0.4,0.3-0.6C192.1,50.3,192.3,50.2,192.5,50.1z M194.9,64.8c0.3,0.8,0.8,1.6,1.5,2.1
		c0.7,0.5,1.6,0.9,2.5,0.9c0.9,0.1,1.8-0.1,2.6-0.6c0.8-0.4,1.4-1.1,1.8-1.9c0.4-0.8,0.5-1.7,0.4-2.6c-0.1-0.9-0.5-1.7-1.1-2.4
		c-0.6-0.7-1.4-1.2-2.2-1.4c-0.9-0.2-1.8-0.2-2.6,0.1c-0.6,0.2-1.1,0.5-1.5,0.9c-0.4,0.4-0.8,0.9-1.1,1.4c-0.3,0.5-0.4,1.1-0.5,1.7
		C194.7,63.6,194.8,64.2,194.9,64.8z"/>
	<path class="st9" d="M192.5,50.1l4-1.4c0.2-0.1,0.4-0.1,0.7,0c0.2,0,0.4,0.2,0.6,0.3l0.7,0.6c0.2,0.2,0.5,0.3,0.8,0.3
		c0.6,0,1.1,0,1.6,0.1c0.2,0,0.3,0,0.5,0c0.2,0,0.3-0.1,0.4-0.2l0.7-0.5c0.2-0.1,0.4-0.2,0.6-0.2c0.2,0,0.4,0,0.6,0.1l3.8,1.9
		c0.2,0.1,0.4,0.2,0.5,0.4c0.1,0.2,0.2,0.4,0.2,0.6v0.9c0,0.3,0.1,0.6,0.4,0.8c0.4,0.4,0.8,0.8,1.1,1.2c0.2,0.2,0.5,0.4,0.8,0.5
		l0.9,0.1c0.2,0,0.4,0.1,0.6,0.3c0.2,0.1,0.3,0.3,0.4,0.5l1.4,4c0.1,0.2,0.1,0.4,0,0.7c0,0.2-0.2,0.4-0.3,0.6l-0.6,0.7
		c-0.2,0.2-0.3,0.5-0.3,0.8c0,0.6,0,1.1-0.1,1.6c0,0.2,0,0.3,0,0.5c0,0.2,0.1,0.3,0.2,0.4l0.5,0.7c0.1,0.2,0.2,0.4,0.2,0.6
		c0,0.2,0,0.4-0.1,0.6l-1.9,3.8c-0.1,0.2-0.2,0.4-0.4,0.5c-0.2,0.1-0.4,0.2-0.6,0.2h-0.9c-0.3,0-0.6,0.1-0.8,0.4
		c-0.4,0.4-0.8,0.7-1.2,1.1c-0.2,0.2-0.4,0.5-0.5,0.8l-0.1,0.9c0,0.2-0.1,0.4-0.3,0.6c-0.1,0.2-0.3,0.3-0.5,0.4l-4,1.4
		c-0.2,0.1-0.4,0.1-0.7,0c-0.2,0-0.4-0.2-0.6-0.3l-0.7-0.6c-0.2-0.2-0.5-0.3-0.8-0.3c-0.5,0-1.1,0-1.6-0.1c-0.2,0-0.3,0-0.5,0
		c-0.2,0-0.3,0.1-0.4,0.2l-0.7,0.5c-0.2,0.1-0.4,0.2-0.6,0.2c-0.2,0-0.4,0-0.6-0.1l-3.8-1.9c-0.2-0.1-0.4-0.2-0.5-0.4
		c-0.1-0.2-0.2-0.4-0.2-0.6v-0.9c0-0.3-0.1-0.6-0.4-0.8c-0.4-0.4-0.8-0.8-1.1-1.2c-0.1-0.1-0.2-0.2-0.3-0.3
		c-0.1-0.1-0.3-0.1-0.4-0.2l-0.9-0.1c-0.2,0-0.4-0.1-0.6-0.3s-0.3-0.3-0.4-0.5l-1.4-4c-0.1-0.2-0.1-0.4,0-0.7c0-0.2,0.2-0.4,0.3-0.6
		l0.6-0.7c0.2-0.2,0.3-0.5,0.3-0.9c0-0.6,0-1.1,0.1-1.6c0-0.3,0-0.6-0.2-0.9l-0.5-0.7c-0.1-0.2-0.2-0.4-0.2-0.6c0-0.2,0-0.4,0.1-0.6
		l1.9-3.8c0.1-0.2,0.2-0.4,0.4-0.5c0.2-0.1,0.4-0.2,0.6-0.2h0.9c0.3,0,0.6-0.1,0.8-0.4c0.4-0.4,0.8-0.8,1.2-1.1
		c0.2-0.2,0.4-0.5,0.5-0.8l0.1-0.9c0-0.2,0.1-0.4,0.3-0.6C192.1,50.3,192.3,50.2,192.5,50.1z M194.9,64.8c0.3,0.8,0.8,1.6,1.5,2.1
		c0.7,0.5,1.6,0.9,2.5,0.9c0.9,0.1,1.8-0.1,2.6-0.6c0.8-0.4,1.4-1.1,1.8-1.9c0.4-0.8,0.5-1.7,0.4-2.6c-0.1-0.9-0.5-1.7-1.1-2.4
		c-0.6-0.7-1.4-1.2-2.2-1.4c-0.9-0.2-1.8-0.2-2.6,0.1c-0.6,0.2-1.1,0.5-1.5,0.9c-0.4,0.4-0.8,0.9-1.1,1.4c-0.3,0.5-0.4,1.1-0.5,1.7
		C194.7,63.6,194.8,64.2,194.9,64.8z"/>
</g>
<path id="triangle" class="st0" d="M169.4,93.6l5-8.6c0.2-0.3,0.3-0.7,0.3-1.1c0-0.4-0.1-0.7-0.3-1.1c-0.2-0.3-0.4-0.6-0.8-0.8
	c-0.3-0.2-0.7-0.3-1.1-0.3h-10c-0.4,0-0.7,0.1-1.1,0.3c-0.3,0.2-0.6,0.5-0.8,0.8c-0.2,0.3-0.3,0.7-0.3,1.1c0,0.4,0.1,0.7,0.3,1.1
	l5,8.6c0.2,0.3,0.5,0.6,0.8,0.7c0.3,0.2,0.7,0.3,1,0.3c0.4,0,0.7-0.1,1-0.3C169,94.1,169.2,93.9,169.4,93.6z"/>
<g id="Layer_6">
	<defs>
		<rect id="SVGID_1_" x="25.6" y="27.4" width="277" height="159.2"/>
	</defs>
	<clipPath id="SVGID_00000092431314974220341050000002549626596824945281_">
		<use xlink:href="#SVGID_1_"  style="overflow:visible;"/>
	</clipPath>
	<g id="guys" style="clip-path:url(#SVGID_00000092431314974220341050000002549626596824945281_);">
		<g id="guy1">
			<path class="st11" d="M103.2,92c1.6,2.6,3.3,5.3,5.1,7.9c1.7,2.6,3.5,5.2,5.3,7.8c3.5,5.1,7.3,10,11.4,14.7
				c1.9,2.2,4,4.2,6.2,6.1l0.8,0.6c0.2,0.1,0.3,0.3,0.5,0.4c0.5,0.3,1,0.6,1.5,0.8c1.2,0.6,2.5,1.1,3.8,1.5c1.4,0.5,2.8,0.9,4.3,1.2
				c1.5,0.3,3,0.7,4.5,1c3,0.6,6.2,1.2,9.3,1.8v6.3c-1.7,0.3-3.4,0.4-5.1,0.5c-1.7,0.1-3.4,0.2-5.1,0.2c-3.5,0-6.9-0.3-10.4-0.8
				c-1.9-0.3-3.7-0.8-5.5-1.4c-1-0.3-2-0.8-2.9-1.2c-0.5-0.2-1-0.6-1.5-0.9l-1.2-0.8c-2.9-2.1-5.6-4.5-8.1-7
				c-4.7-4.9-9-10.1-12.9-15.5c-2-2.7-3.9-5.4-5.7-8.1c-1.8-2.8-3.6-5.5-5.3-8.5L103.2,92z"/>
			<path class="st0" d="M87.9,93.8c-0.9,7.9,18,26.9,18,26.9l12.8-10.7c-3.8-6.3-7.9-12.5-12.5-18.3C99,82.7,88.9,84.8,87.9,93.8z"
				/>
			<path class="st12" d="M98.3,99.4c-5.1-5.4-7.5-6.8-10.4-4.7c0.4,8.4,18.1,25.9,18.1,25.9C107.2,111.7,102.6,105.9,98.3,99.4z"/>
			<path class="st0" d="M117.7,106.3l1.3,3.9L104.8,122l-2.8-2.9L117.7,106.3z"/>
			<path class="st13" d="M117.7,106.3l1.3,3.9L104.8,122l-2.8-2.9L117.7,106.3z"/>
			<path class="st11" d="M155.1,135.8l10,1.7l-5.5,8.7c-1.3,0.2-6.5-2.6-8.8-6.1L155.1,135.8z"/>
			<path class="st11" d="M171.1,143.4l-4,4.5l-7.6-1.7l5.5-8.7L171.1,143.4z"/>
			<path class="st0" d="M98.2,86.2c0,0,10.9,25.5,3,73H56c-0.6-6.9,2.6-40.8-5.2-73.5c5-1,10-1.6,15.1-1.9c6.4-0.4,12.8-0.4,19.2,0
				C89.6,84.3,93.9,85.1,98.2,86.2z"/>
			<path class="st12" d="M60.9,93.8c0.9,5.4-0.3,18.2-4.9,33.1c-0.4-12.8-1.8-25.5-4.4-38v-0.1C54.5,88.6,60,88.8,60.9,93.8z"/>
			<path class="st11" d="M67,62.2c1.4,6.2,3,17.5-1.2,21.6c0,0,1.8,5.1,13.3,5.1c12.7,0,5.9-5.1,5.9-5.1c-7-1.6-7-6.8-5.9-11.6
				L67,62.2z"/>
			<path class="st5" d="M80,89.4l2.7,2.9c0.1,0.1,0.1,0.2,0.2,0.3c0,0.1,0,0.2,0,0.3l-1.4,2.8c0,0.1-0.1,0.2-0.2,0.2
				c-0.1,0.1-0.2,0.1-0.3,0.1l-2.1,0.1c-0.1,0-0.2,0-0.3-0.1c-0.1,0-0.2-0.1-0.2-0.2l-1.9-2.7c-0.1-0.1-0.1-0.2-0.1-0.4
				c0-0.1,0-0.3,0.1-0.4l2.6-3.1c0.1-0.1,0.1-0.1,0.2-0.2c0.1,0,0.2-0.1,0.2-0.1s0.2,0,0.2,0C79.9,89.3,79.9,89.4,80,89.4z"/>
			<path class="st14" d="M79.5,89c-1.3,2.1-2.1,4.5-2.2,7c0,0-14.7-5-14-12.4c1.3-0.6,2.6-1.4,3.8-2.2C67.1,81.4,67.6,86,79.5,89z"
				/>
			<path class="st14" d="M79.5,89c1.3,2,2.2,4.2,2.8,6.5c0,0,6.8-4.7,4.9-11.9l-4-0.9C83.2,82.7,84,87.4,79.5,89z"/>
			<path class="st5" d="M81.2,95.8c0.9,3,7.7,25.3,7.9,30.6c0,0,0,0.1,0,0.1c-0.6,2.9-3.5,7.9-4.6,9.9c0,0.1-0.1,0.1-0.2,0.2
				c-0.1,0-0.2,0.1-0.3,0.1c-0.1,0-0.2,0-0.2-0.1c-0.1-0.1-0.1-0.1-0.2-0.2c-0.8-1.9-2.7-6.6-4-9.3c0-0.1,0-0.1,0-0.2
				C79,117.1,78.8,102,78.5,96c0-0.1,0-0.1,0-0.2c0-0.1,0.1-0.1,0.1-0.2c0,0,0.1-0.1,0.2-0.1c0.1,0,0.1,0,0.2,0h1.7
				c0.1,0,0.2,0,0.3,0.1C81.1,95.6,81.2,95.7,81.2,95.8z"/>
			<path class="st7" d="M72,66.3l7.2,6c-0.3,1.1-0.4,2.3-0.5,3.4c-2.7-0.4-6.3-3.3-6.7-6C71.8,68.5,71.8,67.4,72,66.3z"/>
			<path class="st14" d="M84.8,43.8c1.7,1.3,4.6,6.7,0.9,8.1C82,53.3,80.6,40.7,84.8,43.8z"/>
			<path class="st11" d="M64.8,54.8c1.7,8.2,2.3,13.1,7.1,16.9c1.6,1.3,3.4,2.1,5.4,2.3c2,0.3,4,0,5.8-0.8c1.8-0.8,3.4-2.1,4.6-3.7
				c1.2-1.6,1.8-3.5,2-5.5c0.7-7.6-2.2-19.8-10.9-22.2c-1.9-0.6-3.8-0.6-5.7-0.2c-1.9,0.4-3.6,1.4-5.1,2.7c-1.4,1.3-2.5,3-3,4.8
				C64.5,50.9,64.4,52.9,64.8,54.8z"/>
			<path class="st14" d="M65.9,61l3.5-2.3l0.2-2c0.3-2.9-0.2-5.9-1.6-8.5c0,0,16.8,0.6,18.9-4.6c2.1-5.3-3.8-9.2-3.8-9.2
				s-5.9,3.4-10,3.7c-4,0.3-16.3-4.7-16.3,5.6C51.4,45.4,51.6,54.3,65.9,61"/>
			<path class="st14" d="M57.4,44.1c0,0-2.2-1.8-0.6-7.2C54.8,38,53.8,43.5,57.4,44.1z"/>
			<path class="st11" d="M62.4,64.3c1.4,1.6,3.3,2.7,5.4,2.9c2.8,0.3,3.6-2.3,2.4-4.7c-1.1-2.1-3.9-4.9-6.5-4.1
				C61.1,59.4,60.7,62.3,62.4,64.3z"/>
			<path class="st14" d="M105.1,186.7H76.2c-2.6-15.7-4.7-27.5-4.7-27.5h29.8C101.3,159.2,103,170.8,105.1,186.7z"/>
			<path class="st14" d="M57.1,186.7C56.5,171,56,159.2,56,159.2h29.2c0,0,0.1,11.9,0.2,27.5H57.1z"/>
			<path class="st14" d="M77.8,55.7c0.1,0.7,0.5,1.2,1,1.1c0.4,0,0.7-0.6,0.6-1.3c-0.1-0.7-0.5-1.2-1-1.1C78,54.5,77.7,55,77.8,55.7
				z"/>
			<path class="st14" d="M85.5,54.9c0.1,0.7,0.5,1.2,1,1.1c0.4-0.1,0.7-0.6,0.6-1.3c-0.1-0.7-0.5-1.2-1-1.1S85.4,54.2,85.5,54.9z"/>
			<path class="st15" d="M83.1,55.5c1.1,2,2.5,3.8,4.1,5.4c-1,1.2-3.2,1-3.2,1L83.1,55.5z"/>
			<path class="st14" d="M80.9,63.9c0.5,0,0.9,0,1.4,0c0,0,0.1,0,0.1,0c0,0,0,0,0.1,0c0,0,0,0,0-0.1c0,0,0-0.1,0-0.1
				c0-0.1,0-0.1-0.1-0.1c0,0-0.1,0-0.1,0c-0.9,0.1-1.7,0-2.5-0.3c-0.8-0.3-1.6-0.7-2.2-1.4c0,0,0,0-0.1,0c0,0,0,0-0.1,0
				c0,0-0.1,0-0.1,0c0,0,0,0-0.1,0c0,0,0,0,0,0.1c0,0,0,0,0,0.1c0,0,0,0.1,0,0.1c0,0,0,0,0,0.1C78.2,63.2,79.5,63.8,80.9,63.9z"/>
			<path class="st14" d="M75,53.5c0.1,0,0.2,0,0.2,0c0.1,0,0.1-0.1,0.2-0.2c0.2-0.4,0.6-0.8,1-1.1c0.4-0.3,0.9-0.5,1.4-0.5
				c0.1,0,0.2-0.1,0.3-0.1c0.1-0.1,0.1-0.2,0.1-0.3c0-0.1,0-0.1,0-0.2c0,0-0.1-0.1-0.1-0.1c0,0-0.1-0.1-0.1-0.1c0,0-0.1,0-0.2,0
				c-0.6,0.1-1.2,0.3-1.8,0.6c-0.5,0.3-1,0.8-1.3,1.4c0,0,0,0.1-0.1,0.2c0,0.1,0,0.1,0,0.2c0,0.1,0,0.1,0.1,0.1c0,0,0.1,0.1,0.1,0.1
				C74.9,53.5,75,53.5,75,53.5z"/>
			<path class="st14" d="M88.3,51.9c0.1,0,0.2,0,0.3-0.1c0.1-0.1,0.1-0.2,0.2-0.3c0-0.1,0-0.2-0.1-0.3c-0.3-0.5-0.8-1-1.4-1.3
				c-0.6-0.3-1.2-0.5-1.8-0.6c-0.1,0-0.2,0-0.3,0.1c-0.1,0.1-0.1,0.2-0.1,0.3c0,0.1,0,0.2,0.1,0.3c0.1,0.1,0.2,0.1,0.3,0.1
				c0.5,0,1,0.2,1.4,0.5c0.4,0.3,0.8,0.6,1.1,1.1c0,0,0.1,0.1,0.1,0.1C88.2,51.9,88.3,51.9,88.3,51.9z"/>
			<path class="st11" d="M59.5,98.5l-2,3.5c-0.7,1.2-1.3,2.4-2,3.6c-1.3,2.4-2.6,4.8-3.7,7.3c-1.2,2.4-2.3,4.9-3.3,7.4
				c-0.5,1.2-1,2.5-1.4,3.7l-0.6,1.9l-0.5,1.8l-0.1,0.5l-0.1,0.2c0,0.1,0,0,0,0.1c0,0.1,0,0.1-0.1,0.2c0,0.4,0,0.7,0,1.1
				c0.1,1.1,0.3,2.1,0.7,3.2c0.8,2.5,1.8,4.9,2.9,7.2c2.3,4.9,5.1,9.9,7.8,14.7l-5,3.9c-2.1-2.1-4.1-4.3-5.9-6.6
				c-1.9-2.3-3.6-4.7-5.3-7.2c-1.7-2.6-3.3-5.4-4.5-8.2c-0.7-1.6-1.3-3.3-1.7-5.1c-0.2-1.1-0.3-2.1-0.3-3.2c0-0.6,0-1.3,0.1-1.9
				l0.1-0.5l0.1-0.3l0.1-0.6c0.6-3.1,1.4-6.1,2.4-9c1-2.9,2.1-5.7,3.3-8.5c1.2-2.8,2.5-5.4,3.9-8.1c0.7-1.3,1.4-2.6,2.2-3.9
				c0.8-1.3,1.5-2.5,2.4-3.9L59.5,98.5z"/>
			<path class="st0" d="M50.8,85.8c-8,1.2-16.2,28.9-16.2,28.9l17.2,9.5c0,0,6.9-13.2,10.3-23C65.5,90.9,59.4,84.5,50.8,85.8z"/>
			<path class="st0" d="M35,110.7l-0.7,4.1l17.6,9.7l2.3-3.4L35,110.7z"/>
			<path class="st13" d="M35,110.7l-0.7,4.1l17.6,9.7l2.3-3.4L35,110.7z"/>
			<path class="st11" d="M54.7,152.8l8.4-1.5l-4.3,9.7c0,0-7.7,0-7.3-4L54.7,152.8z"/>
			<path class="st11" d="M69.4,156.3l-4,7.9l-6.6-3l4.3-9.7L69.4,156.3z"/>
		</g>
		<g id="guy2">
			<path class="st16" d="M265.9,62.2c-1.4,6.2-3,17.5,1.2,21.6c0,0-1.8,5.1-13.3,5.1c-12.7,0-5.9-5.1-5.9-5.1c7-1.6,7-6.8,5.9-11.6
				L265.9,62.2z"/>
			<path class="st17" d="M284.3,91.6c0.9,1.4,1.6,2.6,2.4,3.9c0.7,1.3,1.5,2.6,2.2,3.9c1.4,2.6,2.7,5.3,3.9,8.1
				c1.2,2.8,2.3,5.6,3.3,8.5c1,3,1.8,6,2.4,9l0.1,0.6l0.1,0.3l0.1,0.5c0.1,0.6,0.1,1.3,0.1,1.9c0,1.1-0.1,2.2-0.3,3.2
				c-0.4,1.7-0.9,3.4-1.7,5.1c-1.3,2.9-2.8,5.6-4.5,8.2c-1.7,2.5-3.5,4.9-5.3,7.2c-1.9,2.3-3.9,4.5-5.9,6.6l-5-3.9
				c2.7-4.8,5.5-9.8,7.8-14.7c1.1-2.3,2.1-4.8,2.9-7.2c0.3-1,0.6-2.1,0.7-3.2c0-0.4,0-0.7,0-1.1c0-0.1,0-0.2-0.1-0.2v-0.1l-0.1-0.2
				l-0.1-0.5l-0.5-1.8L286,124c-0.4-1.2-0.9-2.5-1.4-3.7c-1-2.5-2.1-4.9-3.3-7.4c-1.2-2.5-2.5-4.9-3.7-7.3c-0.6-1.2-1.3-2.4-2-3.6
				l-2-3.5L284.3,91.6z"/>
			<path class="st14" d="M282.1,85.8c8,1.2,16.2,28.9,16.2,28.9l-17.1,9.5c0,0-7-13.1-10.3-23C267.4,90.9,273.6,84.5,282.1,85.8z"/>
			<path class="st12" d="M277,100.9l-1.3,11.8c1.3,2.8,2.6,5.4,3.5,7.5C279.6,115.5,279.6,107.8,277,100.9z"/>
			<path class="st0" d="M298,110.7l0.7,4.1l-17.6,9.7l-2.3-3.4L298,110.7z"/>
			<path class="st13" d="M298,110.7l0.7,4.1l-17.6,9.7l-2.3-3.4L298,110.7z"/>
			<path class="st16" d="M278.3,152.8l-8.4-1.5l4.3,9.7c0,0,7.7,0,7.3-4L278.3,152.8z"/>
			<path class="st16" d="M263.6,156.3l4,7.9l6.7-3l-4.3-9.7L263.6,156.3z"/>
			<path class="st14" d="M234.7,86.2c0,0-10.9,25.5-3,73h45.3c0.6-6.9-2.6-40.8,5.2-73.5c-5-1-10-1.6-15.1-1.9
				c-6.4-0.4-12.8-0.4-19.2,0C243.4,84.3,239,85.1,234.7,86.2z"/>
			<path class="st12" d="M229.9,108c-0.7,5.7-1,11.5-1,17.2c6.2-4,8.3-13.2,9.2-19.8L229.9,108z"/>
			<path class="st17" d="M240.8,98.6c-1.7,3-3.5,5.7-5.3,8.5c-1.8,2.8-3.7,5.5-5.7,8.1c-3.9,5.5-8.3,10.7-12.9,15.5
				c-2.5,2.6-5.2,4.9-8.1,7l-1.2,0.8c-0.5,0.3-1,0.6-1.5,0.9c-0.9,0.5-1.9,0.9-2.9,1.2c-1.8,0.6-3.6,1.1-5.5,1.4
				c-3.4,0.6-6.9,0.8-10.4,0.8c-1.7,0-3.4,0-5.1-0.2c-1.7-0.2-3.3-0.2-5.1-0.5v-6.3c3.1-0.5,6.2-1.1,9.2-1.8c1.5-0.3,3-0.7,4.5-1
				c1.5-0.4,2.9-0.8,4.3-1.2c1.3-0.4,2.6-0.9,3.8-1.5c0.5-0.3,1-0.5,1.5-0.8c0.2-0.1,0.4-0.3,0.5-0.4l0.8-0.6
				c2.2-1.9,4.3-3.9,6.2-6.1c4.1-4.7,7.9-9.6,11.4-14.7c1.8-2.6,3.6-5.2,5.3-7.8c1.8-2.6,3.4-5.3,5.1-7.9L240.8,98.6z"/>
			<path class="st14" d="M245,93.8c0.9,7.9-16.8,27.2-16.8,27.2l-14-11c3.8-6.3,7.9-12.5,12.4-18.3C233.9,82.7,244,84.8,245,93.8z"
				/>
			<path class="st0" d="M215.2,106.4l-1.4,3.9l14.3,11.8l2.8-2.9L215.2,106.4z"/>
			<path class="st13" d="M215.2,106.4l-1.4,3.9l14.3,11.8l2.8-2.9L215.2,106.4z"/>
			<path class="st16" d="M177.3,136l-10.1,0.1l4.1,9.4c1.2,0.4,6.8-1.6,9.6-4.7L177.3,136z"/>
			<path class="st16" d="M160.2,141l5.5,6.9l5.5-2.4l-4.1-9.4L160.2,141z"/>
			<path class="st14" d="M245,54.9c-0.1,0.7-0.5,1.2-1,1.1c-0.4-0.1-0.7-0.6-0.6-1.3c0.1-0.7,0.5-1.2,1-1.1S245.1,54.2,245,54.9z"/>
			<path class="st18" d="M245.2,55.5c-1.1,2-2.5,3.8-4.1,5.4c1,1.2,3.2,1,3.2,1L245.2,55.5z"/>
			<path class="st14" d="M244,60.5c-1.5,0-2.9-2.2-3.1-5c-0.2-1.5,0.1-3.1,1.1-4.4c0.2-0.2,0.3-0.3,0.6-0.4c0.2-0.1,0.5-0.2,0.7-0.2
				c1.5,0,2.9,2.2,3.1,5c0.2,1.5-0.1,3.1-1,4.4c-0.2,0.2-0.4,0.3-0.6,0.4S244.3,60.5,244,60.5L244,60.5z M243.2,50.9
				c-0.2,0-0.3,0.1-0.5,0.1c-0.2,0.1-0.3,0.2-0.4,0.3c-0.8,1.2-1.1,2.6-0.9,4.1c0.2,2.5,1.4,4.5,2.7,4.5c0.2,0,0.3-0.1,0.5-0.1
				c0.2-0.1,0.3-0.2,0.4-0.3c0.8-1.2,1.1-2.6,0.9-4.1C245.7,53,244.4,50.9,243.2,50.9z"/>
			<path class="st14" d="M247.4,51.9c0.1,0,0.2,0,0.3-0.1c0,0,0.1-0.1,0.1-0.1c0,0,0.1-0.1,0.1-0.1c0-0.1,0-0.1,0-0.2
				c0-0.1,0-0.1-0.1-0.1c-0.3-0.5-0.8-1-1.4-1.3c-0.6-0.3-1.2-0.5-1.8-0.6c-0.1,0-0.2,0-0.3,0.1c-0.1,0.1-0.1,0.2-0.1,0.3
				c0,0.1,0,0.2,0.1,0.3c0.1,0.1,0.2,0.1,0.3,0.1c0.5,0,1,0.2,1.4,0.5c0.4,0.3,0.8,0.6,1.1,1.1c0,0,0.1,0.1,0.1,0.1
				C247.3,51.9,247.3,51.9,247.4,51.9z"/>
			<path class="st16" d="M268.1,54.8c-1.7,8.2-2.3,13.1-7.1,16.9c-1.6,1.2-3.4,2-5.4,2.3c-2,0.3-4,0-5.8-0.8
				c-1.8-0.8-3.4-2.1-4.6-3.7c-1.2-1.6-1.8-3.5-2-5.5c-0.7-7.6,2.2-19.8,10.9-22.2c1.9-0.6,3.8-0.6,5.7-0.2c1.9,0.4,3.6,1.4,5.1,2.7
				c1.4,1.3,2.5,3,3,4.8C268.5,50.9,268.6,52.9,268.1,54.8z"/>
			<path class="st0" d="M279.4,186.7c0.4-9.2-0.4-18.5-2.4-27.5h-29.2c2.3,9,3.4,18.2,3.3,27.5H279.4z"/>
			<path class="st3" d="M279.4,186.7c0.4-9.2-0.4-18.5-2.4-27.5h-29.2c2.3,9,3.4,18.2,3.3,27.5H279.4z"/>
			<path class="st14" d="M250.2,57.3c-1.6-0.8-3.6-8.8-3.1-11.7c0.6-2.9,7-5.9,13.4-4.8c6.4,1.2,9.1,3.4,10.4,9.2
				c1.3,6-3.4,16.1-5.7,16.8c-1.4,0.5-2.8,0.7-4.3,0.5c-1.4-0.1-2.8-0.5-4.1-1.3C254.9,64.9,253.8,55.6,250.2,57.3z"/>
			<path class="st14" d="M248.6,48.5c-3.1,0.2-6.1-4.8-3.2-9.2c0.8-1.3,2-2.3,3.4-2.9c1.4-0.6,2.9-0.8,4.4-0.6c0,0-1.3,2.5,3,2
				c4.3-0.5,12.4,0.7,15.3,3.7c3.5,3.7,1.4,11.1-3.9,9.3C262.3,49,248.6,48.5,248.6,48.5z"/>
			<path class="st14" d="M247.7,48.6c-0.7,0-1.3-0.2-1.9-0.5c-0.6-0.3-1.1-0.7-1.5-1.2c-0.8-1-1.3-2.1-1.5-3.4
				c-0.2-1.3,0-2.5,0.5-3.7c0,0,0-0.1,0-0.1c0,0,0,0,0.1-0.1c0,0,0.1,0,0.1,0c0,0,0.1,0,0.1,0c0,0,0.1,0,0.1,0c0,0,0,0,0.1,0.1
				c0,0,0,0.1,0,0.1c0,0,0,0.1,0,0.1c-0.5,1.1-0.6,2.3-0.5,3.5c0.2,1.2,0.7,2.3,1.4,3.2c0.4,0.6,1,1,1.6,1.3
				c0.7,0.3,1.4,0.3,2.1,0.2c0.1,0,0.1,0,0.2,0c0.1,0,0.1,0.1,0.1,0.1c0,0.1,0,0.1,0,0.2c0,0.1-0.1,0.1-0.1,0.1
				C248.2,48.5,248,48.6,247.7,48.6z"/>
			<path class="st16" d="M255.4,56.2c0.1,2.1-0.6,4.2-1.9,5.9c-1.8,2.1-4.2,0.8-5-1.7c-0.7-2.3-0.5-6.2,1.9-7.4
				C252.8,51.8,255.2,53.6,255.4,56.2z"/>
			<path class="st0" d="M227.9,186.7h32.5c1.6-9.1,2-18.3,1.1-27.5h-29.8C231.7,159.2,230,170.8,227.9,186.7z"/>
			<path class="st3" d="M227.9,186.7h32.5c1.6-9.1,2-18.3,1.1-27.5h-29.8C231.7,159.2,230,170.8,227.9,186.7z"/>
		</g>
	</g>
</g>
</svg>
